#define arch_width 14
#define arch_height 14
static unsigned char arch_bits[] = {
   0x00, 0x00, 0x80, 0x00, 0xc0, 0x00, 0xc0, 0x01, 0xc0, 0x01, 0xe0, 0x03,
   0xf0, 0x03, 0xf0, 0x07, 0x70, 0x07, 0x38, 0x0e, 0x3c, 0x0e, 0x1c, 0x0c,
   0x06, 0x18, 0x00, 0x00 };
