#define calc_width 14
#define calc_height 14
static unsigned char calc_bits[] = {
   0xfc, 0x0f, 0xfc, 0x0f, 0x04, 0x08, 0x2c, 0x0d, 0xfc, 0x0f, 0x2c, 0x0d,
   0x24, 0x09, 0xfc, 0x0f, 0x24, 0x09, 0x2c, 0x0d, 0xec, 0x0d, 0x24, 0x09,
   0xfc, 0x0f, 0xb8, 0x07 };
