#define calendar_width 14
#define calendar_height 14
static unsigned char calendar_bits[] = {
   0x18, 0x0c, 0x18, 0x0c, 0xfe, 0x3f, 0x92, 0x28, 0x02, 0x20, 0x62, 0x2b,
   0x62, 0x29, 0x02, 0x20, 0x6a, 0x2b, 0x4a, 0x29, 0x02, 0x20, 0x6a, 0x23,
   0x02, 0x20, 0xfc, 0x1f };
