#define circle_width 14
#define circle_height 14
static unsigned char circle_bits[] = {
   0xff, 0x3f, 0xff, 0x3f, 0xbf, 0x3f, 0x0f, 0x3c, 0x07, 0x38, 0x07, 0x38,
   0x03, 0x38, 0x07, 0x38, 0x07, 0x38, 0x07, 0x38, 0x0f, 0x3c, 0xbf, 0x3f,
   0xff, 0x3f, 0xff, 0x3f };
