#define connect_width 14
#define connect_height 14
static unsigned char connect_bits[] = {
   0x00, 0x30, 0x00, 0x38, 0x80, 0x1d, 0xc0, 0x0f, 0x80, 0x07, 0x40, 0x0f,
   0x28, 0x0e, 0x3c, 0x05, 0xfc, 0x00, 0x78, 0x00, 0xfc, 0x00, 0x6e, 0x00,
   0x07, 0x00, 0x03, 0x00 };
