#define db_width 16
#define db_height 16
static unsigned char db_bits[] = {
   0x00, 0x00, 0x00, 0x00, 0xf0, 0x0f, 0x0c, 0x30, 0x04, 0x20, 0xfc, 0x3e,
   0xfc, 0x3f, 0xf4, 0x2f, 0x0c, 0x30, 0xfc, 0x3f, 0xfc, 0x3f, 0x54, 0x25,
   0x5c, 0x3d, 0xfc, 0x3f, 0xf0, 0x07, 0x00, 0x00 };
