#define doc_width 14
#define doc_height 14
static unsigned char doc_bits[] = {
   0xfc, 0x01, 0xfc, 0x03, 0x7c, 0x07, 0x7c, 0x0f, 0x7c, 0x0c, 0xfc, 0x0f,
   0x0c, 0x0c, 0xfc, 0x0f, 0x0c, 0x0c, 0x5c, 0x0d, 0x4c, 0x0e, 0x0c, 0x0c,
   0xfc, 0x0e, 0xfc, 0x0f };
