#define globe_width 14
#define globe_height 14
static unsigned char globe_bits[] = {
   0xf0, 0x03, 0xf8, 0x07, 0x3c, 0x0e, 0xfe, 0x1e, 0x37, 0x3e, 0x3b, 0x3c,
   0x0b, 0x3c, 0x03, 0x3c, 0x13, 0x3c, 0x72, 0x18, 0xe6, 0x18, 0x2c, 0x0c,
   0xf8, 0x07, 0xe0, 0x01 };
