#define grid3x3_width 14
#define grid3x3_height 14
static unsigned char grid3x3_bits[] = {
   0xff, 0x3f, 0x11, 0x22, 0x11, 0x22, 0x11, 0x22, 0xff, 0x3f, 0x11, 0x22,
   0x11, 0x22, 0x11, 0x22, 0x11, 0x22, 0xff, 0x3f, 0x11, 0x22, 0x11, 0x22,
   0x11, 0x22, 0xff, 0x3f };
