#define grid2x2_width 14
#define grid2x2_height 14
static unsigned char grid2x2_bits[] = {
   0x3f, 0x3f, 0x3f, 0x3f, 0x3f, 0x3f, 0x3f, 0x3f, 0x3f, 0x3f, 0x3f, 0x3f,
   0x00, 0x00, 0x00, 0x00, 0x3f, 0x3f, 0x3f, 0x3f, 0x3f, 0x3f, 0x3f, 0x3f,
   0x3f, 0x3f, 0x3e, 0x3f };
