#define info_width 14
#define info_height 14
static unsigned char info_bits[] = {
   0xe0, 0x07, 0xe0, 0x07, 0xe0, 0x07, 0xe0, 0x07, 0x00, 0x00, 0xf0, 0x07,
   0xf0, 0x07, 0xe0, 0x07, 0xe0, 0x07, 0xe0, 0x07, 0xe0, 0x07, 0xe0, 0x07,
   0xf0, 0x0f, 0xf0, 0x0f };
