#define layers_width 14
#define layers_height 14
static unsigned char layers_bits[] = {
   0x00, 0x00, 0xc0, 0x01, 0xf0, 0x07, 0xfc, 0x1f, 0xfc, 0x1f, 0xf0, 0x03,
   0x80, 0x00, 0x1e, 0x3c, 0x78, 0x0f, 0xe0, 0x01, 0x04, 0x18, 0x3c, 0x0e,
   0xe0, 0x03, 0x80, 0x00 };
