#define layout_tall_width 14
#define layout_tall_height 14
static unsigned char layout_tall_bits[] = {
   0xff, 0x3f, 0xff, 0x3f, 0x81, 0x21, 0x81, 0x21, 0x81, 0x21, 0x81, 0x21,
   0x81, 0x3f, 0x81, 0x3f, 0x81, 0x21, 0x81, 0x21, 0x81, 0x21, 0x81, 0x21,
   0xff, 0x3f, 0xff, 0x3f };
