#define layout_width 14
#define layout_height 14
static unsigned char layout_bits[] = {
   0x00, 0x00, 0x1f, 0x3f, 0x1f, 0x3f, 0x1f, 0x3f, 0x1f, 0x3f, 0x1f, 0x3f,
   0x1f, 0x00, 0x1f, 0x00, 0x1f, 0x3f, 0x1f, 0x3f, 0x1f, 0x3f, 0x1f, 0x3f,
   0x1f, 0x3f, 0x00, 0x00 };
