#define list_width 14
#define list_height 14
static unsigned char list_bits[] = {
   0x00, 0x00, 0xf7, 0x3f, 0xf7, 0x3f, 0x40, 0x12, 0x00, 0x00, 0x00, 0x00,
   0xf3, 0x3f, 0xf7, 0x3f, 0xe3, 0x3f, 0x00, 0x00, 0x00, 0x00, 0x42, 0x15,
   0xf7, 0x3f, 0xe3, 0x3f };
