#define mail_width 14
#define mail_height 14
static unsigned char mail_bits[] = {
   0x00, 0x00, 0x00, 0x00, 0xff, 0x3f, 0x5f, 0x3e, 0x0b, 0x34, 0x13, 0x33,
   0x63, 0x31, 0xc3, 0x30, 0x83, 0x30, 0x03, 0x30, 0x23, 0x31, 0xfe, 0x3f,
   0x00, 0x00, 0x00, 0x00 };
