#define monitor_width 14
#define monitor_height 14
static unsigned char monitor_bits[] = {
   0x00, 0x00, 0xff, 0x3f, 0xef, 0x36, 0x03, 0x30, 0x03, 0x30, 0x03, 0x30,
   0x03, 0x30, 0x03, 0x30, 0x03, 0x30, 0x03, 0x30, 0xff, 0x3f, 0xf0, 0x03,
   0xf0, 0x03, 0x00, 0x00 };
