#define movie_width 14
#define movie_height 14
static unsigned char movie_bits[] = {
   0xe0, 0x03, 0x78, 0x07, 0x1c, 0x0e, 0x1e, 0x1e, 0x3e, 0x1f, 0xf3, 0x33,
   0x23, 0x31, 0x63, 0x31, 0xf2, 0x1b, 0x1e, 0x1e, 0x1e, 0x1e, 0x1c, 0x0e,
   0xf0, 0x1f, 0x80, 0x30 };
