#define music_width 14
#define music_height 14
static unsigned char music_bits[] = {
   0x00, 0x00, 0x00, 0x3c, 0xf0, 0x3f, 0xf0, 0x3f, 0x10, 0x20, 0x10, 0x30,
   0x10, 0x20, 0x10, 0x20, 0x10, 0x20, 0x10, 0x28, 0x14, 0x3c, 0x1f, 0x3e,
   0x1f, 0x1c, 0x0e, 0x00 };
