#define net_width 14
#define net_height 14
static unsigned char net_bits[] = {
   0xfc, 0x0f, 0xfc, 0x0f, 0x04, 0x08, 0x04, 0x08, 0x0c, 0x08, 0x04, 0x08,
   0xfc, 0x0f, 0xfc, 0x0f, 0xa0, 0x01, 0x60, 0x03, 0x1b, 0x3a, 0x15, 0x32,
   0x1f, 0x3e, 0xe0, 0x03 };
