#define next_width 14
#define next_height 14
static unsigned char next_bits[] = {
   0x00, 0x00, 0x00, 0x00, 0x08, 0x0e, 0x38, 0x0e, 0x78, 0x0e, 0xf8, 0x0f,
   0xf8, 0x0f, 0xf8, 0x0f, 0x78, 0x0e, 0x38, 0x0e, 0x18, 0x0e, 0x00, 0x00,
   0x00, 0x00, 0x00, 0x00 };
