#define pacman_width 14
#define pacman_height 14
static unsigned char pacman_bits[] = {
   0xe0, 0x01, 0xf8, 0x07, 0x7c, 0x0f, 0x1e, 0x1f, 0x1e, 0x1e, 0xff, 0x3f,
   0xff, 0x3f, 0x1f, 0x00, 0x3f, 0x00, 0x7e, 0x00, 0xfe, 0x1f, 0xfc, 0x0f,
   0xf8, 0x07, 0xe0, 0x01 };
