#define page_width 14
#define page_height 14
static unsigned char page_bits[] = {
   0xfe, 0x1f, 0xff, 0x3f, 0x03, 0x30, 0x53, 0x31, 0xf3, 0x37, 0x03, 0x30,
   0x03, 0x30, 0x93, 0x33, 0x9b, 0x33, 0x93, 0x33, 0x13, 0x31, 0x03, 0x30,
   0x7f, 0x3f, 0xfe, 0x1f };
