#define pause_width 14
#define pause_height 14
static unsigned char pause_bits[] = {
   0x00, 0x00, 0x00, 0x00, 0x00, 0x00, 0x38, 0x0e, 0x38, 0x0e, 0x38, 0x0e,
   0x38, 0x0e, 0x38, 0x0e, 0x38, 0x0e, 0x38, 0x0e, 0x38, 0x0e, 0x00, 0x00,
   0x00, 0x00, 0x00, 0x00 };
