#define picture_width 14
#define picture_height 14
static unsigned char picture_bits[] = {
   0xff, 0x3f, 0xff, 0x3f, 0x03, 0x30, 0x0b, 0x30, 0x0b, 0x30, 0x1b, 0x30,
   0x03, 0x33, 0x03, 0x33, 0x83, 0x37, 0xdb, 0x3f, 0xff, 0x3f, 0xff, 0x3f,
   0xff, 0x3f, 0x00, 0x00 };
