#define play_width 14
#define play_height 14
static unsigned char play_bits[] = {
   0x00, 0x00, 0x00, 0x00, 0x18, 0x00, 0x78, 0x00, 0xf8, 0x00, 0xf8, 0x03,
   0xf8, 0x07, 0xf8, 0x03, 0xf8, 0x01, 0x38, 0x00, 0x18, 0x00, 0x00, 0x00,
   0x00, 0x00, 0x00, 0x00 };
