#define prev_width 14
#define prev_height 14
static unsigned char prev_bits[] = {
   0x00, 0x00, 0x00, 0x00, 0x38, 0x0c, 0x38, 0x0e, 0x38, 0x0f, 0xf8, 0x0f,
   0xf8, 0x0f, 0xf8, 0x0f, 0x38, 0x0f, 0x38, 0x0e, 0x38, 0x0c, 0x00, 0x00,
   0x00, 0x00, 0x00, 0x00 };
