#define sound_high_width 14
#define sound_high_height 14
static unsigned char sound_high_bits[] = {
   0x00, 0x00, 0x00, 0x0c, 0x00, 0x0c, 0x20, 0x18, 0x30, 0x33, 0x3f, 0x33,
   0x3f, 0x36, 0x3f, 0x32, 0x3f, 0x32, 0x3d, 0x33, 0x30, 0x13, 0x20, 0x18,
   0x00, 0x0c, 0x00, 0x08 };
