#define sound_mute_width 14
#define sound_mute_height 14
static unsigned char sound_mute_bits[] = {
   0x00, 0x00, 0x00, 0x20, 0x00, 0x10, 0x00, 0x0c, 0x40, 0x04, 0x70, 0x02,
   0x7e, 0x05, 0xbe, 0x04, 0x5e, 0x04, 0x2e, 0x04, 0x58, 0x06, 0x68, 0x02,
   0x44, 0x00, 0x02, 0x00 };
