#define sound_low_width 14
#define sound_low_height 14
static unsigned char sound_low_bits[] = {
   0x00, 0x00, 0x00, 0x00, 0x00, 0x00, 0x00, 0x01, 0xc0, 0x01, 0xf8, 0x05,
   0xf8, 0x05, 0xf8, 0x05, 0xf8, 0x05, 0xf8, 0x05, 0x80, 0x01, 0x00, 0x01,
   0x00, 0x00, 0x00, 0x00 };
