#define text_width 14
#define text_height 14
static unsigned char text_bits[] = {
   0xfe, 0x3f, 0xfe, 0x3f, 0xc2, 0x21, 0xc2, 0x21, 0xc0, 0x01, 0xc0, 0x01,
   0xc0, 0x01, 0xc0, 0x01, 0xc0, 0x01, 0xc0, 0x01, 0xc0, 0x01, 0xc0, 0x01,
   0xc0, 0x01, 0xf0, 0x03 };
